<svg xmlns="http://www.w3.org/2000/svg" viewBox="0 0 512 512" style="height: 512px; width: 512px;"><defs><filter id="shadow-1" height="300%" width="300%" x="-100%" y="-100%"><feFlood flood-color="rgba(83, 4, 98, 1)" result="flood"></feFlood><feComposite in="flood" in2="SourceGraphic" operator="atop" result="composite"></feComposite><feGaussianBlur in="composite" stdDeviation="14" result="blur"></feGaussianBlur><feOffset dx="16" dy="8" result="offset"></feOffset><feComposite in="SourceGraphic" in2="offset" operator="over"></feComposite></filter><linearGradient x1="0" x2="1" y1="0" y2="1" id="sbed-poison-cloud-gradient-1"><stop offset="0%" stop-color="#bd10e0" stop-opacity="1"></stop><stop offset="100%" stop-color="#5aa406" stop-opacity="1"></stop></linearGradient></defs><g class="" transform="translate(0,0)" style=""><path d="M256 106c-33.81 0-61.887 22.69-71.25 53.438C174.532 154.22 163.258 151 151 151c-41.42 0-75 33.58-75 75 0 1.784.346 3.405.468 5.157C41.284 243.387 16 276.65 16 316c0 49.706 40.294 90 90 90h300c49.706 0 90-40.294 90-90 0-39.35-25.284-72.614-60.468-84.843.123-1.752.468-3.374.468-5.157 0-41.42-33.58-75-75-75-12.258 0-23.532 3.222-33.75 8.437C317.887 128.69 289.81 106 256 106zm-60 90l60 60 60-60 30 30-60 60 60 60-30 30-60-60-60 60-30-30 60-60-60-60z" fill="url(#sbed-poison-cloud-gradient-1)" stroke="#d0021b" stroke-opacity="1" stroke-width="2" transform="translate(25.6, 25.6) scale(0.9, 0.9) rotate(0, 256, 256) skewX(0) skewY(0)" filter="url(#shadow-1)"></path></g></svg>